<?xml version="1.0" encoding="UTF-8"?>
<svg version="1.1" xmlns="http://www.w3.org/2000/svg" width="128" height="128">
<path d="M0 0 C2.4375 0.125 2.4375 0.125 5 1 C6.3125 3.5625 6.3125 3.5625 7 6 C7.63808594 5.84402344 8.27617188 5.68804688 8.93359375 5.52734375 C9.75988281 5.33269531 10.58617187 5.13804687 11.4375 4.9375 C12.26121094 4.74027344 13.08492187 4.54304687 13.93359375 4.33984375 C14.95646484 4.17162109 14.95646484 4.17162109 16 4 C17.86224861 5.86224861 17.12354714 8.42531175 17.1328125 10.89453125 C17 13 17 13 16 17 C16.495 21.95 16.495 21.95 17 27 C20.3 18.09 23.6 9.18 27 0 C33.84827314 0.76091924 37.21643241 1.16974352 43 4 C42.40531984 9.66828055 40.90757199 14.60322154 38.9375 19.9375 C38.51500977 21.10635742 38.51500977 21.10635742 38.08398438 22.29882812 C37.39532294 24.20140125 36.69850097 26.10101725 36 28 C36.66 28 37.32 28 38 28 C38 31.96 38 35.92 38 40 C39.65 40.66 41.3 41.32 43 42 C44.58832177 45.17664353 44.41182039 48.54070868 44 52 C42.5 54.375 42.5 54.375 41 56 C41 56.66 41 57.32 41 58 C41.86165771 57.96072388 41.86165771 57.96072388 42.74072266 57.9206543 C45.36853171 57.816082 47.99590231 57.75149056 50.625 57.6875 C51.52863281 57.64560547 52.43226562 57.60371094 53.36328125 57.56054688 C57.85913464 57.47850575 61.00442325 57.47986798 64.5859375 60.39453125 C67.72477901 63.78224531 68.1262826 65.23923623 68.19287109 69.72167969 C68.20893402 70.70320007 68.22499695 71.68472046 68.24154663 72.69598389 C68.28599233 77.19184713 68.32706981 81.68756213 68.35009766 86.18359375 C68.36664991 88.55413638 68.39392998 90.92462924 68.43212891 93.29492188 C68.48692838 96.71250305 68.50877824 100.12891347 68.5234375 103.546875 C68.55744156 105.13154572 68.55744156 105.13154572 68.59213257 106.74822998 C68.56856605 114.96853125 68.56856605 114.96853125 65.59228516 118.65332031 C62.23453814 121.69293835 60.82590337 122.1254804 56.4296875 122.09765625 C55.53378906 122.09443359 54.63789062 122.09121094 53.71484375 122.08789062 C52.30912109 122.07532227 52.30912109 122.07532227 50.875 122.0625 C49.93011719 122.05798828 48.98523438 122.05347656 48.01171875 122.04882812 C45.67441613 122.03702357 43.33723939 122.02055759 41 122 C40.690625 122.804375 40.38125 123.60875 40.0625 124.4375 C39 127 39 127 38 128 C35.7826789 128.12599925 33.56129939 128.18086394 31.34057617 128.20874023 C30.64459824 128.21852402 29.9486203 128.2283078 29.23155212 128.23838806 C26.91871064 128.26840432 24.60592726 128.28974502 22.29296875 128.30859375 C21.11031653 128.31845149 21.11031653 128.31845149 19.90377235 128.32850838 C15.73005594 128.36113021 11.55636537 128.38557337 7.38256836 128.4050293 C3.92418338 128.42284638 0.46661324 128.45766685 -2.99145508 128.50756836 C-7.16185947 128.56768639 -11.33150796 128.59849335 -15.50232506 128.60820198 C-17.09281894 128.61677327 -18.68329174 128.63563284 -20.27353859 128.6649456 C-22.50072176 128.70378623 -24.72495221 128.70490688 -26.95239258 128.69702148 C-28.21956619 128.70732895 -29.48673981 128.71763641 -30.79231262 128.72825623 C-34 128 -34 128 -36.41209412 125.36322021 C-38.1299857 121.72468738 -38.48596404 119.48959939 -38.45410156 115.49145508 C-38.45379944 114.22026321 -38.45349731 112.94907135 -38.45318604 111.63935852 C-38.43275752 110.26607637 -38.41189351 108.89280064 -38.390625 107.51953125 C-38.38315444 106.10040589 -38.37746536 104.68127014 -38.37347412 103.26213074 C-38.3582594 99.53943016 -38.31902902 95.81736171 -38.2746582 92.09490967 C-38.23369841 88.3035939 -38.2154395 84.51217663 -38.1953125 80.72070312 C-38.15709258 74.06358059 -38.09912845 67.40692697 -38.0269165 60.75007629 C-37.85074429 56.10281292 -37.85074429 56.10281292 -40 52 C-40.67605634 44.90140845 -40.67605634 44.90140845 -38.125 41.5 C-36 40 -36 40 -34 40 C-34 36.04 -34 32.08 -34 28 C-32.68 28 -31.36 28 -30 28 C-30 22.72 -30 17.44 -30 12 C-26.0709375 11.9690625 -26.0709375 11.9690625 -22.0625 11.9375 C-21.2362915 11.928396 -20.41008301 11.91929199 -19.55883789 11.90991211 C-17.70566241 11.90276055 -15.85250692 11.9497148 -14 12 C-13.67 12.33 -13.34 12.66 -13 13 C-13 10.36 -13 7.72 -13 5 C-9.18510326 3.53273202 -6.70988378 4.56663581 -3 6 C-2.690625 5.195625 -2.38125 4.39125 -2.0625 3.5625 C-1 1 -1 1 0 0 Z M42 74 C42 84.56 42 95.12 42 106 C45.3 106 48.6 106 52 106 C52 95.44 52 84.88 52 74 C48.7 74 45.4 74 42 74 Z " fill="#010100" transform="translate(50,0)"/>
<path d="M0 0 C1.31145996 -0.01260864 2.62291992 -0.02521729 3.97412109 -0.03820801 C5.40723202 -0.03104843 6.84033805 -0.0228445 8.2734375 -0.01367188 C9.74170183 -0.0163663 11.20996443 -0.0202483 12.67822266 -0.02526855 C15.75505567 -0.0311661 18.83142412 -0.02259312 21.90820312 -0.00390625 C25.85300675 0.01888432 29.79672192 0.00576249 33.7414856 -0.01819611 C36.77327685 -0.03264768 39.80480987 -0.02805124 42.83660889 -0.01768494 C44.29107797 -0.01501583 45.74557047 -0.01829392 47.20001221 -0.02760315 C49.23229527 -0.03775609 51.26466049 -0.01953812 53.296875 0 C54.45364746 0.00318237 55.61041992 0.00636475 56.80224609 0.00964355 C59.6484375 0.51757812 59.6484375 0.51757812 61.52114868 2.18127441 C62.92661349 5.09409729 63.0292346 7.18216663 63.03662109 10.41601562 C63.04607758 11.60404785 63.05553406 12.79208008 63.0652771 14.01611328 C63.05920441 15.29534668 63.05313171 16.57458008 63.046875 17.89257812 C63.04974518 19.20919434 63.05261536 20.52581055 63.05557251 21.88232422 C63.0599903 24.66644877 63.05358281 27.45028412 63.03955078 30.234375 C63.02245869 33.79888937 63.03230287 37.36272606 63.05026817 40.92721558 C63.06372981 44.33239043 63.05429821 47.73738403 63.046875 51.14257812 C63.05294769 52.42181152 63.05902039 53.70104492 63.0652771 55.01904297 C63.05109238 56.80109131 63.05109238 56.80109131 63.03662109 58.61914062 C63.03423431 59.66408691 63.03184753 60.7090332 63.02938843 61.78564453 C62.5806421 65.00376284 62.08304629 66.3546981 59.6484375 68.51757812 C56.80224609 69.0255127 56.80224609 69.0255127 53.296875 69.03515625 C51.32968506 69.05406921 51.32968506 69.05406921 49.32275391 69.07336426 C47.88964298 69.06620468 46.45653695 69.05800075 45.0234375 69.04882812 C43.55517317 69.05152255 42.08691057 69.05540455 40.61865234 69.0604248 C37.54181933 69.06632235 34.46545088 69.05774937 31.38867188 69.0390625 C27.44386825 69.01627193 23.50015308 69.02939376 19.5553894 69.05335236 C16.52359815 69.06780393 13.49206513 69.06320749 10.46026611 69.05284119 C9.00579703 69.05017208 7.55130453 69.05345017 6.09686279 69.0627594 C4.06457973 69.07291234 2.03221451 69.05469437 0 69.03515625 C-1.15677246 69.03197388 -2.31354492 69.0287915 -3.50537109 69.0255127 C-6.3515625 68.51757812 -6.3515625 68.51757812 -8.22427368 66.85388184 C-9.62973849 63.94105896 -9.7323596 61.85298962 -9.73974609 58.61914062 C-9.74920258 57.4311084 -9.75865906 56.24307617 -9.7684021 55.01904297 C-9.76232941 53.73980957 -9.75625671 52.46057617 -9.75 51.14257812 C-9.75287018 49.82596191 -9.75574036 48.5093457 -9.75869751 47.15283203 C-9.7631153 44.36870748 -9.75670781 41.58487213 -9.74267578 38.80078125 C-9.72558369 35.23626688 -9.73542787 31.67243019 -9.75339317 28.10794067 C-9.76685481 24.70276582 -9.75742321 21.29777222 -9.75 17.89257812 C-9.75607269 16.61334473 -9.76214539 15.33411133 -9.7684021 14.01611328 C-9.75894562 12.82808105 -9.74948914 11.64004883 -9.73974609 10.41601562 C-9.73735931 9.37106934 -9.73497253 8.32612305 -9.73251343 7.24951172 C-8.84911581 0.91435553 -6.01787752 0.01655566 0 0 Z " fill="#F6659B" transform="translate(25.3515625,55.482421875)"/>
<path d="M0 0 C2.56314499 -0.08132187 5.12368418 -0.14064175 7.6875 -0.1875 C8.40873047 -0.21263672 9.12996094 -0.23777344 9.87304688 -0.26367188 C14.46146874 -0.32652697 17.36934474 0.13296248 21 3 C22.16043673 5.32087347 22.13850616 6.69413707 22.16113281 9.27856445 C22.17074036 10.16320877 22.1803479 11.04785309 22.19024658 11.95930481 C22.19449646 12.91761703 22.19874634 13.87592926 22.203125 14.86328125 C22.20882507 15.84741501 22.21452515 16.83154877 22.22039795 17.84550476 C22.2298555 19.93109052 22.23638492 22.01669127 22.24023438 24.10229492 C22.24992902 27.28916626 22.280941 30.47538979 22.3125 33.66210938 C22.31903108 35.68749617 22.32428114 37.71288758 22.328125 39.73828125 C22.3404718 40.69052078 22.3528186 41.64276031 22.36553955 42.62385559 C22.33690649 51.15434723 22.33690649 51.15434723 19 55 C15.23699626 56.25433458 11.72789091 56.10695422 7.8125 56.0625 C7.06291016 56.05798828 6.31332031 56.05347656 5.54101562 56.04882812 C3.69397617 56.03706354 1.84697787 56.01912865 0 56 C0 53.36 0 50.72 0 48 C6.435 47.505 6.435 47.505 13 47 C13 34.46 13 21.92 13 9 C8.71 8.67 4.42 8.34 0 8 C0 5.36 0 2.72 0 0 Z " fill="#9DE0FA" transform="translate(92,62)"/>
<path d="M0 0 C0.69919052 -0.00335861 1.39838104 -0.00671722 2.11875916 -0.01017761 C4.44125115 -0.01971426 6.76367126 -0.02163208 9.08618164 -0.02270508 C10.69421926 -0.0259158 12.30225659 -0.02927972 13.91029358 -0.03279114 C17.28558022 -0.03878922 20.66084122 -0.04063035 24.03613281 -0.04003906 C28.36865089 -0.03993741 32.70100522 -0.05359016 37.03348446 -0.07081127 C40.35596985 -0.08191084 43.6784154 -0.0839589 47.00091743 -0.08342934 C48.5985629 -0.08461252 50.19620929 -0.08905315 51.79383659 -0.0967617 C54.02543595 -0.10652055 56.25667655 -0.10370005 58.48828125 -0.09765625 C60.39570351 -0.09979378 60.39570351 -0.09979378 62.34165955 -0.10197449 C65.30883789 0.14526367 65.30883789 0.14526367 67.30883789 2.14526367 C66.75328234 6.70081923 66.75328234 6.70081923 65.30883789 8.14526367 C63.08039318 8.25017603 60.84857866 8.28383579 58.61767578 8.29052734 C57.91848526 8.29388596 57.21929474 8.29724457 56.49891663 8.30070496 C54.17642463 8.31024161 51.85400452 8.31215942 49.53149414 8.31323242 C47.92345652 8.31644314 46.3154192 8.31980707 44.7073822 8.32331848 C41.33209557 8.32931656 37.95683456 8.33115769 34.58154297 8.33056641 C30.24902489 8.33046475 25.91667057 8.34411751 21.58419132 8.36133862 C18.26170593 8.37243819 14.93926038 8.37448625 11.61675835 8.37395668 C10.01911288 8.37513987 8.42146649 8.37958049 6.82383919 8.38728905 C4.59223983 8.3970479 2.36099923 8.39422739 0.12939453 8.38818359 C-1.77802773 8.39032112 -1.77802773 8.39032112 -3.72398376 8.39250183 C-6.69116211 8.14526367 -6.69116211 8.14526367 -8.69116211 6.14526367 C-7.88994389 -0.42472576 -6.32486419 0.01897131 0 0 Z " fill="#9EE0FA" transform="translate(22.691162109375,43.854736328125)"/>
<path d="M0 0 C21.12 0 42.24 0 64 0 C64 2.64 64 5.28 64 8 C42.88 8 21.76 8 0 8 C0 5.36 0 2.72 0 0 Z " fill="#71D6FC" transform="translate(20,32)"/>
<path d="M0 0 C1.03125 -0.00773438 2.0625 -0.01546875 3.125 -0.0234375 C6.34537453 0.4228644 7.74872655 1.04886235 10 3.375 C10.52238806 9.33022388 10.52238806 9.33022388 9 12.375 C7.35 12.375 5.7 12.375 4 12.375 C4 11.715 4 11.055 4 10.375 C2.68 10.375 1.36 10.375 0 10.375 C0 11.035 0 11.695 0 12.375 C-0.66 12.375 -1.32 12.375 -2 12.375 C-2 11.715 -2 11.055 -2 10.375 C-3.32 10.375 -4.64 10.375 -6 10.375 C-6 11.035 -6 11.695 -6 12.375 C-6.99 12.375 -7.98 12.375 -9 12.375 C-10.54163175 9.2917365 -10.29747535 6.76621901 -10 3.375 C-6.91597234 0.18841561 -4.32331586 -0.03242487 0 0 Z " fill="#B8262C" transform="translate(52,15.625)"/>
<path d="M0 0 C0 3.96 0 7.92 0 12 C-6.72960526 6.28618421 -6.72960526 6.28618421 -8.60546875 4.30078125 C-9.92591548 2.77263357 -9.92591548 2.77263357 -12 3 C-10.47291037 6.43595166 -8.40072955 9.11912454 -6 12 C-8.64 12 -11.28 12 -14 12 C-14.96070434 9.11788698 -15.10581883 7.30149956 -15.0625 4.3125 C-15.05347656 3.50425781 -15.04445313 2.69601563 -15.03515625 1.86328125 C-15.02355469 1.24839844 -15.01195313 0.63351563 -15 0 C-13.06325815 -0.19517554 -11.12555991 -0.38087873 -9.1875 -0.5625 C-8.10855469 -0.66691406 -7.02960937 -0.77132813 -5.91796875 -0.87890625 C-3 -1 -3 -1 0 0 Z " fill="#8EA91C" transform="translate(39,16)"/>
<path d="M0 0 C0.99 0.33 1.98 0.66 3 1 C3 6.94 3 12.88 3 19 C1.68 19 0.36 19 -1 19 C-1.02683987 16.02077407 -1.04676037 13.04178705 -1.0625 10.0625 C-1.07087891 9.21236328 -1.07925781 8.36222656 -1.08789062 7.48632812 C-1.09111328 6.67744141 -1.09433594 5.86855469 -1.09765625 5.03515625 C-1.10289307 4.2862915 -1.10812988 3.53742676 -1.11352539 2.76586914 C-1 1 -1 1 0 0 Z " fill="#020101" transform="translate(21,78)"/>
<path d="M0 0 C2.97 0 5.94 0 9 0 C8.67 1.32 8.34 2.64 8 4 C5.03 4 2.06 4 -1 4 C-0.67 2.68 -0.34 1.36 0 0 Z " fill="#CEC2AF" transform="translate(74,21)"/>
<path d="M0 0 C5.75 0.875 5.75 0.875 8 2 C7.67 2.99 7.34 3.98 7 5 C4.36 5 1.72 5 -1 5 C-0.67 3.35 -0.34 1.7 0 0 Z " fill="#D1C5B2" transform="translate(80,5)"/>
<path d="M0 0 C0.66 0.33 1.32 0.66 2 1 C1.67 1.33 1.34 1.66 1 2 C1.99 2.33 2.98 2.66 4 3 C4 4.32 4 5.64 4 7 C2.35 7 0.7 7 -1 7 C-1.33 7.66 -1.66 8.32 -2 9 C-2.125 5.625 -2.125 5.625 -2 2 C-1.34 1.34 -0.68 0.68 0 0 Z " fill="#651518" transform="translate(44,17)"/>
<path d="M0 0 C2.64 0 5.28 0 8 0 C8 0.99 8 1.98 8 3 C5.03 3 2.06 3 -1 3 C-0.67 2.01 -0.34 1.02 0 0 Z " fill="#DB274B" transform="translate(77,14)"/>
<path d="M0 0 C0.99 0.33 1.98 0.66 3 1 C2.67 2.65 2.34 4.3 2 6 C1.01 5.67 0.02 5.34 -1 5 C-0.67 3.35 -0.34 1.7 0 0 Z " fill="#0A0406" transform="translate(21,68)"/>
<path d="M0 0 C0.66 0 1.32 0 2 0 C2.33 1.65 2.66 3.3 3 5 C1.68 5 0.36 5 -1 5 C-0.67 3.35 -0.34 1.7 0 0 Z " fill="#627612" transform="translate(51,6)"/>
</svg>
