<?xml version="1.0" standalone="no"?>
<!DOCTYPE svg PUBLIC "-//W3C//DTD SVG 20010904//EN"
 "http://www.w3.org/TR/2001/REC-SVG-20010904/DTD/svg10.dtd">
<svg version="1.0" xmlns="http://www.w3.org/2000/svg"
 width="128.000000pt" height="128.000000pt" viewBox="0 0 128.000000 128.000000"
 preserveAspectRatio="xMidYMid meet">

<g transform="translate(0.000000,128.000000) scale(0.100000,-0.100000)"
fill="#000000" stroke="none">
<path d="M492 1255 c-11 -14 -22 -31 -24 -37 -3 -8 -10 -8 -25 1 -31 16 -63
14 -70 -5 -3 -8 -1 -32 5 -52 6 -20 8 -61 5 -90 l-6 -54 -41 41 c-68 67 -110
42 -44 -26 l32 -33 -36 0 c-32 0 -36 3 -42 31 -3 17 -6 45 -6 62 l0 30 56 -6
c44 -5 56 -3 61 10 9 24 -17 33 -87 31 l-65 -3 0 -77 c0 -70 -2 -78 -20 -80
-17 -3 -21 -12 -23 -57 -3 -45 -8 -59 -33 -82 -35 -33 -38 -74 -8 -112 16 -21
18 -31 10 -46 -7 -13 -11 -130 -11 -323 l0 -303 25 -38 26 -37 349 0 349 0 20
29 c20 28 24 29 121 33 97 3 100 4 132 36 l33 32 0 250 0 250 -33 32 c-31 32
-35 33 -130 36 -53 2 -101 8 -106 12 -5 5 1 20 13 36 30 39 27 80 -9 114 -26
24 -30 35 -30 79 0 34 -5 53 -15 59 -13 7 -10 23 25 117 22 60 37 112 33 116
-10 8 -120 49 -134 49 -5 0 -13 -10 -18 -22 -77 -213 -95 -258 -105 -258 -10
0 -12 74 -3 190 2 33 0 35 -28 34 -16 0 -37 -4 -45 -7 -10 -4 -22 4 -35 25
-26 42 -39 44 -63 13z m357 -36 c52 -18 34 -46 -24 -35 -27 5 -32 10 -28 26 6
23 9 24 52 9z m-319 -29 c0 -11 -4 -20 -10 -20 -5 0 -10 9 -10 20 0 11 5 20
10 20 6 0 10 -9 10 -20z m-82 -29 c3 -8 -1 -12 -9 -9 -7 2 -15 10 -17 17 -3 8
1 12 9 9 7 -2 15 -10 17 -17z m172 10 c0 -12 -20 -25 -27 -18 -7 7 6 27 18 27
5 0 9 -4 9 -9z m210 -108 c-1 -36 -82 -46 -88 -10 -3 14 4 17 42 17 25 0 46
-3 46 -7z m10 -143 l0 -40 -320 0 -320 0 0 40 0 40 320 0 320 0 0 -40z m54
-102 c8 -13 8 -23 0 -35 -10 -17 -41 -18 -369 -21 -368 -2 -385 -1 -385 37 0
40 11 41 384 39 329 -3 360 -4 370 -20z m-30 -132 c24 -51 24 -561 0 -612
l-16 -34 -328 0 -328 0 -16 34 c-24 51 -24 561 0 612 l16 34 328 0 328 0 16
-34z m229 -37 c42 -19 47 -47 47 -269 0 -132 -4 -218 -11 -233 -16 -35 -50
-47 -134 -47 l-75 0 0 40 0 39 68 3 67 3 0 195 0 195 -67 3 -68 3 0 39 0 40
75 0 c41 0 85 -5 98 -11z m-73 -269 l0 -160 -50 0 -50 0 0 160 0 160 50 0 50
0 0 -160z"/>
<path d="M200 570 c0 -23 4 -30 20 -30 16 0 20 7 20 30 0 23 -4 30 -20 30 -16
0 -20 -7 -20 -30z"/>
<path d="M440 540 c0 -13 7 -20 20 -20 13 0 20 7 20 20 0 13 -7 20 -20 20 -13
0 -20 -7 -20 -20z"/>
<path d="M200 400 c0 -93 1 -100 20 -100 19 0 20 7 20 100 0 93 -1 100 -20
100 -19 0 -20 -7 -20 -100z"/>
<path d="M700 420 c0 -13 7 -20 20 -20 13 0 20 7 20 20 0 13 -7 20 -20 20 -13
0 -20 -7 -20 -20z"/>
<path d="M340 400 c0 -13 7 -20 20 -20 13 0 20 7 20 20 0 13 -7 20 -20 20 -13
0 -20 -7 -20 -20z"/>
<path d="M760 300 c0 -13 7 -20 20 -20 13 0 20 7 20 20 0 13 -7 20 -20 20 -13
0 -20 -7 -20 -20z"/>
<path d="M500 280 c0 -13 7 -20 20 -20 13 0 20 7 20 20 0 13 -7 20 -20 20 -13
0 -20 -7 -20 -20z"/>
<path d="M660 240 c0 -13 7 -20 20 -20 13 0 20 7 20 20 0 13 -7 20 -20 20 -13
0 -20 -7 -20 -20z"/>
<path d="M360 160 c0 -13 7 -20 20 -20 13 0 20 7 20 20 0 13 -7 20 -20 20 -13
0 -20 -7 -20 -20z"/>
<path d="M560 140 c0 -13 7 -20 20 -20 13 0 20 7 20 20 0 13 -7 20 -20 20 -13
0 -20 -7 -20 -20z"/>
</g>
</svg>
