<svg version="1.1" id="Layer_1" xmlns="http://www.w3.org/2000/svg" xmlns:xlink="http://www.w3.org/1999/xlink" x="0px" y="0px"
	 width="100%" viewBox="0 0 128 128" enable-background="new 0 0 128 128" xml:space="preserve">
<path fill="#010000" opacity="1.000000" stroke="none" 
	d="
M73.000000,129.000000 
	C48.666668,129.000000 24.833334,129.000000 1.000000,129.000000 
	C1.000000,86.333336 1.000000,43.666668 1.000000,1.000000 
	C43.666668,1.000000 86.333336,1.000000 129.000000,1.000000 
	C129.000000,43.666668 129.000000,86.333336 129.000000,129.000000 
	C110.500000,129.000000 92.000000,129.000000 73.000000,129.000000 
M17.000307,69.602631 
	C17.000561,85.415329 16.955122,101.228226 17.023981,117.040627 
	C17.050810,123.201241 18.968098,124.997757 24.997799,124.998650 
	C43.806610,125.001442 62.615421,125.003036 81.424232,124.997505 
	C86.653809,124.995964 88.897110,123.221687 88.935738,118.118118 
	C89.073051,99.976288 89.105865,81.831322 88.891060,63.690941 
	C88.842171,59.562874 86.898155,56.830051 81.733414,56.898834 
	C62.595097,57.153736 43.449238,57.155933 24.311028,56.897053 
	C19.166670,56.827469 17.629671,59.504616 17.055292,63.651627 
	C16.828987,65.285553 17.006617,66.975426 17.000307,69.602631 
M106.996773,89.501610 
	C106.996605,95.328133 106.880615,101.157898 107.043694,106.979851 
	C107.128990,110.024994 106.006271,111.200058 102.970123,111.036034 
	C99.710632,110.859947 96.434265,110.996269 93.313797,110.996269 
	C93.313797,114.009766 93.313797,116.411339 93.313797,118.994690 
	C97.940430,118.994690 102.255074,119.103775 106.561859,118.966309 
	C111.631165,118.804497 114.875877,115.885078 114.933296,110.969841 
	C115.088829,97.653969 115.082245,84.334030 114.934677,71.017982 
	C114.883522,66.401688 112.162933,63.455837 107.551971,63.116749 
	C102.805321,62.767673 98.013023,63.039242 93.279167,63.039242 
	C93.279167,65.947876 93.279167,68.349556 93.279167,71.005386 
	C96.864136,71.005386 100.219879,70.674278 103.450462,71.165833 
	C104.771324,71.366814 106.721680,73.268417 106.833321,74.533356 
	C107.241531,79.158615 106.996033,83.841568 106.996773,89.501610 
M28.535454,53.001564 
	C47.364746,53.001530 66.194092,52.978203 85.023277,53.024426 
	C88.156090,53.032116 91.045029,52.597004 90.849998,48.715099 
	C90.671806,45.168327 87.808388,44.969398 84.944855,44.976887 
	C68.115242,45.020893 51.285461,44.997734 34.455738,44.998886 
	C29.456833,44.999229 24.429367,44.707073 19.475689,45.182030 
	C17.902977,45.332825 16.526848,47.533920 15.060761,48.796776 
	C16.557995,50.195618 17.849661,52.324425 19.601866,52.817867 
	C22.072760,53.513702 24.884609,52.998814 28.535454,53.001564 
M48.500000,40.999035 
	C60.587326,40.999035 72.674652,40.999035 84.694122,40.999035 
	C84.694122,38.024185 84.694122,35.629856 84.694122,33.283676 
	C63.340298,33.283676 42.292473,33.283676 21.305553,33.283676 
	C21.305553,35.971905 21.305553,38.368923 21.305553,40.999035 
	C30.238720,40.999035 38.869358,40.999035 48.500000,40.999035 
M43.031887,23.542221 
	C43.601200,25.433001 44.170509,27.323782 44.556168,28.604609 
	C47.152954,28.056290 48.883133,27.294022 50.542267,27.425850 
	C53.691841,27.676100 56.788673,28.544689 59.936302,28.901764 
	C60.596893,28.976700 61.668808,28.112822 62.063663,27.408310 
	C64.676697,22.746098 62.632584,18.114016 57.367943,17.356794 
	C54.306683,16.916491 50.912773,16.730127 48.054108,17.640379 
	C46.038868,18.282066 44.671730,20.959131 43.031887,23.542221 
M39.672817,19.412134 
	C39.066559,18.315996 38.419834,16.254229 37.860497,16.277672 
	C33.677643,16.452984 29.512068,17.040495 25.359964,17.496807 
	C24.101652,28.325081 25.219349,29.901522 35.054554,28.066532 
	C32.278198,26.022734 30.280470,24.819912 28.655956,23.234634 
	C27.927252,22.523529 27.945673,21.046803 27.625063,19.917501 
	C28.872540,20.159130 30.430103,20.013325 31.308380,20.716251 
	C33.777462,22.692390 35.966824,25.018019 38.833836,27.745584 
	C39.070137,24.445812 39.222752,22.314672 39.672817,19.412134 
M81.181824,10.621007 
	C83.803627,10.459012 86.425430,10.297017 89.047241,10.135023 
	C89.071213,9.509538 89.095192,8.884052 89.119171,8.258567 
	C86.739510,7.382745 84.359856,6.506923 81.329315,5.391547 
	C80.971573,7.341130 80.698593,8.828778 81.181824,10.621007 
M81.129768,25.865925 
	C82.170479,24.911528 83.211197,23.957130 84.251915,23.002733 
	C80.632912,22.774870 76.477226,19.718513 74.221489,25.851252 
	C76.770393,25.851252 78.541542,25.851252 81.129768,25.865925 
M77.588799,17.634659 
	C80.660423,17.871416 84.139954,19.441961 85.928711,15.367192 
	C83.058456,15.702537 79.370926,11.848856 77.588799,17.634659 
z"/>
<path fill="#FE68A0" opacity="1.000000" stroke="none" 
	d="
M17.000309,69.121231 
	C17.006617,66.975426 16.828987,65.285553 17.055292,63.651627 
	C17.629671,59.504616 19.166670,56.827469 24.311028,56.897053 
	C43.449238,57.155933 62.595097,57.153736 81.733414,56.898834 
	C86.898155,56.830051 88.842171,59.562874 88.891060,63.690941 
	C89.105865,81.831322 89.073051,99.976288 88.935738,118.118118 
	C88.897110,123.221687 86.653809,124.995964 81.424232,124.997505 
	C62.615421,125.003036 43.806610,125.001442 24.997799,124.998650 
	C18.968098,124.997757 17.050810,123.201241 17.023981,117.040627 
	C16.955122,101.228226 17.000561,85.415329 17.000309,69.121231 
M21.040190,96.860527 
	C21.825058,97.526917 22.609926,98.193298 23.394794,98.859680 
	C23.928154,97.929626 24.887371,97.015259 24.922316,96.066841 
	C25.087465,91.584846 25.132288,87.087051 24.913015,82.609924 
	C24.855211,81.429703 23.703144,80.303070 23.053562,79.151833 
	C22.368456,80.266098 21.151070,81.353050 21.092268,82.499443 
	C20.862661,86.975647 20.999718,91.470673 21.040190,96.860527 
z"/>
<path fill="#9EE0FA" opacity="1.000000" stroke="none" 
	d="
M106.996773,89.002197 
	C106.996033,83.841568 107.241531,79.158615 106.833321,74.533356 
	C106.721680,73.268417 104.771324,71.366814 103.450462,71.165833 
	C100.219879,70.674278 96.864136,71.005386 93.279167,71.005386 
	C93.279167,68.349556 93.279167,65.947876 93.279167,63.039242 
	C98.013023,63.039242 102.805321,62.767673 107.551971,63.116749 
	C112.162933,63.455837 114.883522,66.401688 114.934677,71.017982 
	C115.082245,84.334030 115.088829,97.653969 114.933296,110.969841 
	C114.875877,115.885078 111.631165,118.804497 106.561859,118.966309 
	C102.255074,119.103775 97.940430,118.994690 93.313797,118.994690 
	C93.313797,116.411339 93.313797,114.009766 93.313797,110.996269 
	C96.434265,110.996269 99.710632,110.859947 102.970123,111.036034 
	C106.006271,111.200058 107.128990,110.024994 107.043694,106.979851 
	C106.880615,101.157898 106.996605,95.328133 106.996773,89.002197 
z"/>
<path fill="#9EE1FB" opacity="1.000000" stroke="none" 
	d="
M28.043070,53.001564 
	C24.884609,52.998814 22.072760,53.513702 19.601866,52.817867 
	C17.849661,52.324425 16.557995,50.195618 15.060760,48.796776 
	C16.526848,47.533920 17.902977,45.332825 19.475689,45.182030 
	C24.429367,44.707073 29.456833,44.999229 34.455738,44.998886 
	C51.285461,44.997734 68.115242,45.020893 84.944855,44.976887 
	C87.808388,44.969398 90.671806,45.168327 90.849998,48.715099 
	C91.045029,52.597004 88.156090,53.032116 85.023277,53.024426 
	C66.194092,52.978203 47.364746,53.001530 28.043070,53.001564 
z"/>
<path fill="#71D6FC" opacity="1.000000" stroke="none" 
	d="
M48.000000,40.999035 
	C38.869358,40.999035 30.238720,40.999035 21.305553,40.999035 
	C21.305553,38.368923 21.305553,35.971905 21.305553,33.283676 
	C42.292473,33.283676 63.340298,33.283676 84.694122,33.283676 
	C84.694122,35.629856 84.694122,38.024185 84.694122,40.999035 
	C72.674652,40.999035 60.587326,40.999035 48.000000,40.999035 
z"/>
<path fill="#E53037" opacity="1.000000" stroke="none" 
	d="
M43.023560,23.134834 
	C44.671730,20.959131 46.038868,18.282066 48.054108,17.640379 
	C50.912773,16.730127 54.306683,16.916491 57.367943,17.356794 
	C62.632584,18.114016 64.676697,22.746098 62.063663,27.408310 
	C61.668808,28.112822 60.596893,28.976700 59.936302,28.901764 
	C56.788673,28.544689 53.691841,27.676100 50.542267,27.425850 
	C48.883133,27.294022 47.152954,28.056290 44.556168,28.604609 
	C44.170509,27.323782 43.601200,25.433001 43.023560,23.134834 
z"/>
<path fill="#8FAA1C" opacity="1.000000" stroke="none" 
	d="
M39.524094,19.797832 
	C39.222752,22.314672 39.070137,24.445812 38.833836,27.745584 
	C35.966824,25.018019 33.777462,22.692390 31.308380,20.716251 
	C30.430103,20.013325 28.872540,20.159130 27.625063,19.917501 
	C27.945673,21.046803 27.927252,22.523529 28.655956,23.234634 
	C30.280470,24.819912 32.278198,26.022734 35.054554,28.066532 
	C25.219349,29.901522 24.101652,28.325081 25.359964,17.496807 
	C29.512068,17.040495 33.677643,16.452984 37.860497,16.277672 
	C38.419834,16.254229 39.066559,18.315996 39.524094,19.797832 
z"/>
<path fill="#D2C6B3" opacity="1.000000" stroke="none" 
	d="
M80.803719,10.468718 
	C80.698593,8.828778 80.971573,7.341130 81.329315,5.391547 
	C84.359856,6.506923 86.739510,7.382745 89.119171,8.258567 
	C89.095192,8.884052 89.071213,9.509538 89.047241,10.135023 
	C86.425430,10.297017 83.803627,10.459012 80.803719,10.468718 
z"/>
<path fill="#D6CAB7" opacity="1.000000" stroke="none" 
	d="
M80.721230,25.858589 
	C78.541542,25.851252 76.770393,25.851252 74.221489,25.851252 
	C76.477226,19.718513 80.632912,22.774870 84.251915,23.002733 
	C83.211197,23.957130 82.170479,24.911528 80.721230,25.858589 
z"/>
<path fill="#DA274B" opacity="1.000000" stroke="none" 
	d="
M77.563141,17.243145 
	C79.370926,11.848856 83.058456,15.702537 85.928711,15.367192 
	C84.139954,19.441961 80.660423,17.871416 77.563141,17.243145 
z"/>
<path fill="#030102" opacity="1.000000" stroke="none" 
	d="
M21.020321,96.409607 
	C20.999718,91.470673 20.862661,86.975647 21.092268,82.499443 
	C21.151070,81.353050 22.368456,80.266098 23.053562,79.151833 
	C23.703144,80.303070 24.855211,81.429703 24.913015,82.609924 
	C25.132288,87.087051 25.087465,91.584846 24.922316,96.066841 
	C24.887371,97.015259 23.928154,97.929626 23.394794,98.859680 
	C22.609926,98.193298 21.825058,97.526917 21.020321,96.409607 
z"/>
</svg>